<?xml version="1.0" standalone="no"?>
<!DOCTYPE svg PUBLIC "-//W3C//DTD SVG 20010904//EN"
 "http://www.w3.org/TR/2001/REC-SVG-20010904/DTD/svg10.dtd">
<svg version="1.0" xmlns="http://www.w3.org/2000/svg"
 width="152.000000pt" height="152.000000pt" viewBox="0 0 152.000000 152.000000"
 preserveAspectRatio="xMidYMid meet">
<metadata>
Created by potrace 1.11, written by Peter Selinger 2001-2013
</metadata>
<g transform="translate(0.000000,152.000000) scale(0.100000,-0.100000)"
fill="#000000" stroke="none">
<path d="M670 1243 c-30 -16 -68 -45 -84 -66 -29 -36 -31 -45 -31 -116 0 -70
3 -81 28 -114 49 -64 123 -85 187 -52 71 36 94 122 45 170 -26 27 -64 32 -83
13 -16 -16 -15 -45 1 -51 9 -4 9 -8 -2 -16 -25 -17 -51 5 -51 43 0 47 34 76
91 76 38 0 50 -5 77 -33 62 -64 50 -155 -31 -235 l-43 -42 -137 -8 c-129 -8
-139 -10 -180 -38 -130 -91 -89 -284 61 -284 71 0 117 60 90 118 -14 29 -58
38 -65 15 -3 -7 2 -13 10 -13 40 0 24 -65 -18 -76 -67 -17 -119 38 -112 114 5
50 31 82 88 107 36 17 46 17 107 5 92 -18 87 -15 129 -84 78 -130 103 -162
145 -186 114 -64 248 8 248 132 0 43 -4 54 -31 79 -36 33 -90 39 -127 13 -39
-27 -20 -94 23 -78 13 5 16 2 13 -12 -2 -12 -13 -20 -31 -22 -68 -8 -93 83
-38 138 68 69 173 45 221 -51 11 -21 20 -51 20 -66 0 -47 -53 -145 -104 -191
-112 -103 -316 -149 -466 -106 -58 17 -153 34 -159 28 -8 -7 68 -46 129 -65
195 -62 406 -13 546 126 69 68 94 125 94 214 0 76 -30 135 -88 172 -82 52
-187 33 -240 -45 -38 -56 -23 -159 27 -186 23 -12 81 -13 97 -2 31 21 39 80
10 83 -6 1 -15 2 -21 4 -5 1 -14 3 -19 3 -20 4 19 32 44 32 35 0 50 -19 57
-67 13 -101 -125 -148 -211 -72 -31 27 -76 125 -76 164 0 7 25 57 55 112 80
147 85 220 18 294 -44 49 -96 65 -154 48 -81 -25 -116 -112 -68 -173 33 -42
99 -31 99 16 0 10 -4 18 -10 18 -5 0 -10 5 -10 10 0 14 33 13 48 -2 19 -19 14
-63 -10 -86 -34 -31 -71 -36 -113 -16 -54 25 -77 67 -72 131 7 104 85 159 214
151 99 -5 186 -49 272 -135 78 -78 114 -146 136 -252 9 -40 23 -88 33 -105
l17 -31 3 53 c4 74 -30 201 -73 273 -121 198 -367 302 -525 222z"/>
<path d="M505 1199 c-146 -78 -230 -216 -242 -401 -16 -232 89 -398 251 -398
56 0 93 14 129 48 86 81 79 209 -13 257 -93 48 -195 -31 -150 -116 13 -23 43
-25 60 -4 10 12 9 15 -8 15 -43 0 -33 62 14 80 80 31 145 -84 94 -167 -49 -80
-178 -86 -246 -11 -81 88 -105 275 -54 423 24 71 66 131 133 192 54 48 97 103
81 103 -5 0 -27 -10 -49 -21z"/>
</g>
</svg>
